# Blender 3.5.1
# www.blender.org
mtllib pantalla_velador.mtl
o SketchUp.046
v -1.106505 1.484504 -2.783526
v -1.106505 1.484504 -2.768403
v -1.107501 1.484504 -2.775964
v -1.103587 1.484504 -2.790572
v -1.103587 1.484504 -2.761357
v -1.098944 1.484504 -2.796625
v -1.098944 1.484504 -2.755304
v -1.092893 1.484504 -2.801268
v -1.092893 1.484504 -2.750661
v -1.085845 1.484504 -2.804186
v -1.085845 1.484504 -2.747743
v -1.078283 1.484504 -2.805182
v -1.080579 1.484504 -2.747049
v -1.078283 1.484504 -2.746747
v -1.075987 1.484504 -2.804880
v -1.070721 1.484504 -2.747743
v -1.070721 1.484504 -2.804186
v -1.063675 1.484504 -2.801268
v -1.063675 1.484504 -2.750661
v -1.057625 1.484504 -2.796625
v -1.057625 1.484504 -2.755304
v -1.052982 1.484504 -2.790572
v -1.052982 1.484504 -2.761357
v -1.050061 1.484504 -2.783526
v -1.050061 1.484504 -2.768403
v -1.049066 1.484504 -2.775964
v -1.049066 1.484504 -2.775964
v -1.050061 1.484504 -2.783526
v -1.050061 1.484504 -2.768403
v -1.052982 1.484504 -2.761357
v -1.052982 1.484504 -2.790572
v -1.057625 1.484504 -2.755304
v -1.057625 1.484504 -2.796625
v -1.063675 1.484504 -2.750661
v -1.063675 1.484504 -2.801268
v -1.070721 1.484504 -2.747743
v -1.070721 1.484504 -2.804186
v -1.075987 1.484504 -2.804880
v -1.078283 1.484504 -2.746747
v -1.078283 1.484504 -2.805182
v -1.080579 1.484504 -2.747049
v -1.085845 1.484504 -2.747743
v -1.085845 1.484504 -2.804186
v -1.092893 1.484504 -2.750661
v -1.092893 1.484504 -2.801268
v -1.098944 1.484504 -2.755304
v -1.098944 1.484504 -2.796625
v -1.103587 1.484504 -2.761357
v -1.103587 1.484504 -2.790572
v -1.106505 1.484504 -2.768403
v -1.106505 1.484504 -2.783526
v -1.107501 1.484504 -2.775964
v -1.078283 1.484504 -2.746747
v -1.070721 1.484504 -2.747743
v -1.080579 1.484504 -2.747049
v -1.085845 1.484504 -2.747743
v -1.092893 1.484504 -2.750661
v -1.098944 1.484504 -2.755304
v -1.103587 1.484504 -2.761357
v -1.106505 1.484504 -2.768403
v -1.107501 1.484504 -2.775964
v -1.106505 1.484504 -2.783526
v -1.103587 1.484504 -2.790572
v -1.098944 1.484504 -2.796625
v -1.092893 1.484504 -2.801268
v -1.085845 1.484504 -2.804186
v -1.078283 1.484504 -2.805182
v -1.075987 1.484504 -2.804880
v -1.070721 1.484504 -2.804186
v -1.063675 1.484504 -2.801268
v -1.057625 1.484504 -2.796625
v -1.052982 1.484504 -2.790572
v -1.050061 1.484504 -2.783526
v -1.049066 1.484504 -2.775964
v -1.050061 1.484504 -2.768403
v -1.052982 1.484504 -2.761357
v -1.057625 1.484504 -2.755304
v -1.063675 1.484504 -2.750661
vn -0.0000 -1.0000 -0.0000
vn 0.0002 -1.0000 -0.0000
vn -0.0001 -1.0000 -0.0000
vn 0.0001 -1.0000 -0.0000
vn -0.0000 1.0000 -0.0000
vn -0.0001 1.0000 -0.0000
vn 0.0001 1.0000 -0.0000
s 0
usemtl material_0
f 27//5 28//5 29//5
f 29//5 28//5 30//5
f 28//6 31//6 30//6
f 30//5 31//5 32//5
f 31//6 33//6 32//6
f 32//5 33//5 34//5
f 33//5 35//5 34//5
f 34//5 35//5 36//5
f 35//5 37//5 36//5
f 37//7 38//7 36//7
f 36//5 38//5 39//5
f 38//5 40//5 39//5
f 39//7 40//7 41//7
f 41//5 40//5 42//5
f 40//5 43//5 42//5
f 42//5 43//5 44//5
f 43//5 45//5 44//5
f 44//5 45//5 46//5
f 45//5 47//5 46//5
f 46//7 47//7 48//7
f 47//5 49//5 48//5
f 48//7 49//7 50//7
f 49//5 51//5 50//5
f 52//5 50//5 51//5
usemtl Color_H06
f 1//1 2//1 3//1
f 2//1 1//1 4//1
f 2//2 4//2 5//2
f 5//1 4//1 6//1
f 5//3 6//3 7//3
f 7//1 6//1 8//1
f 7//1 8//1 9//1
f 9//1 8//1 10//1
f 9//1 10//1 11//1
f 11//1 10//1 12//1
f 11//1 12//1 13//1
f 13//3 12//3 14//3
f 14//1 12//1 15//1
f 14//1 15//1 16//1
f 16//3 15//3 17//3
f 16//1 17//1 18//1
f 16//1 18//1 19//1
f 19//1 18//1 20//1
f 19//1 20//1 21//1
f 21//1 20//1 22//1
f 21//1 22//1 23//1
f 23//4 22//4 24//4
f 23//1 24//1 25//1
f 25//1 24//1 26//1
l 53 54
l 55 53
l 56 55
l 57 56
l 58 57
l 59 58
l 60 59
l 61 60
l 62 61
l 63 62
l 64 63
l 65 64
l 66 65
l 67 66
l 68 67
l 69 68
l 70 69
l 71 70
l 72 71
l 73 72
l 74 73
l 75 74
l 76 75
l 77 76
l 78 77
l 54 78
o SketchUp.050
v -0.092591 0.164737 0.040496
v -0.203754 -0.158145 0.041535
v -0.187147 -0.158145 0.092766
v -0.187147 -0.158145 0.092766
v -0.203754 -0.158145 0.041535
v -0.092591 0.164737 0.040496
v -0.203754 -0.158145 0.041535
v -0.092591 0.164737 0.040496
v -0.187147 -0.158145 0.092766
v -0.098890 0.164737 0.015518
v -0.098890 0.164737 0.015518
v -0.098890 0.164737 0.015518
v -0.157849 -0.158145 0.137956
v -0.157849 -0.158145 0.137956
v -0.157849 -0.158145 0.137956
v -0.098509 0.164737 -0.010240
v -0.098509 0.164737 -0.010240
v -0.098509 0.164737 -0.010240
v -0.080040 0.164737 0.062993
v -0.080040 0.164737 0.062993
v -0.080040 0.164737 0.062993
v -0.206535 -0.158145 -0.012252
v -0.206535 -0.158145 -0.012252
v -0.206535 -0.158145 -0.012252
v -0.062095 0.164737 0.081476
v -0.062095 0.164737 0.081476
v -0.062095 0.164737 0.081476
v -0.195298 -0.158145 -0.064924
v -0.195298 -0.158145 -0.064924
v -0.195298 -0.158145 -0.064924
v -0.117848 -0.158145 0.174021
v -0.117848 -0.158145 0.174021
v -0.117848 -0.158145 0.174021
v -0.091476 0.164737 -0.035023
v -0.091476 0.164737 -0.035023
v -0.091476 0.164737 -0.035023
v -0.069881 -0.158145 0.198507
v -0.069881 -0.158145 0.198507
v -0.069881 -0.158145 0.198507
v -0.078268 0.164737 -0.057139
v -0.078268 0.164737 -0.057139
v -0.078268 0.164737 -0.057139
v -0.039980 0.164737 0.094684
v -0.039980 0.164737 0.094684
v -0.039980 0.164737 0.094684
v -0.170815 -0.158145 -0.112892
v -0.170815 -0.158145 -0.112892
v -0.170815 -0.158145 -0.112892
v -0.015197 0.164737 0.101717
v -0.015197 0.164737 0.101717
v -0.015197 0.164737 0.101717
v -0.134747 -0.158145 -0.152890
v -0.134747 -0.158145 -0.152890
v -0.134747 -0.158145 -0.152890
v -0.017209 -0.158145 0.209741
v -0.017209 -0.158145 0.209741
v -0.017209 -0.158145 0.209741
v -0.059784 0.164737 -0.075084
v -0.059784 0.164737 -0.075084
v -0.059784 0.164737 -0.075084
v 0.036578 -0.158145 0.206963
v 0.036578 -0.158145 0.206963
v 0.036578 -0.158145 0.206963
v -0.037287 0.164737 -0.087635
v -0.037287 0.164737 -0.087635
v -0.037287 0.164737 -0.087635
v 0.010561 0.164737 0.102098
v 0.010561 0.164737 0.102098
v 0.010561 0.164737 0.102098
v -0.089558 -0.158145 -0.182191
v -0.089558 -0.158145 -0.182191
v -0.089558 -0.158145 -0.182191
v 0.035540 0.164737 0.095799
v 0.035540 0.164737 0.095799
v 0.035540 0.164737 0.095799
v -0.038326 -0.158145 -0.198798
v -0.038326 -0.158145 -0.198798
v -0.038326 -0.158145 -0.198798
v 0.087810 -0.158145 0.190356
v 0.087810 -0.158145 0.190356
v 0.087810 -0.158145 0.190356
v -0.012309 0.164737 -0.093934
v -0.012309 0.164737 -0.093934
v -0.012309 0.164737 -0.093934
v 0.132999 -0.158145 0.161055
v 0.132999 -0.158145 0.161055
v 0.132999 -0.158145 0.161055
v 0.013449 0.164737 -0.093553
v 0.013449 0.164737 -0.093553
v 0.013449 0.164737 -0.093553
v 0.058036 0.164737 0.083249
v 0.058036 0.164737 0.083249
v 0.058036 0.164737 0.083249
v 0.015458 -0.158145 -0.201576
v 0.015458 -0.158145 -0.201576
v 0.015458 -0.158145 -0.201576
v 0.076517 0.164737 0.065304
v 0.076517 0.164737 0.065304
v 0.076517 0.164737 0.065304
v 0.041796 -0.158145 -0.195961
v 0.068130 -0.158145 -0.190342
v 0.068130 -0.158145 -0.190342
v 0.041796 -0.158145 -0.195961
v 0.068130 -0.158145 -0.190342
v 0.041796 -0.158145 -0.195961
v 0.169065 -0.158145 0.121057
v 0.169065 -0.158145 0.121057
v 0.169065 -0.158145 0.121057
v 0.038232 0.164737 -0.086520
v 0.038232 0.164737 -0.086520
v 0.038232 0.164737 -0.086520
v 0.193551 -0.158145 0.073089
v 0.193551 -0.158145 0.073089
v 0.193551 -0.158145 0.073089
v 0.060348 0.164737 -0.073311
v 0.060348 0.164737 -0.073311
v 0.060348 0.164737 -0.073311
v 0.089726 0.164737 0.043188
v 0.089726 0.164737 0.043188
v 0.089726 0.164737 0.043188
v 0.116101 -0.158145 -0.165856
v 0.116101 -0.158145 -0.165856
v 0.116101 -0.158145 -0.165856
v 0.096761 0.164737 0.018405
v 0.096761 0.164737 0.018405
v 0.096761 0.164737 0.018405
v 0.156098 -0.158145 -0.129791
v 0.156098 -0.158145 -0.129791
v 0.156098 -0.158145 -0.129791
v 0.204785 -0.158145 0.020417
v 0.204785 -0.158145 0.020417
v 0.204785 -0.158145 0.020417
v 0.078293 0.164737 -0.054828
v 0.078293 0.164737 -0.054828
v 0.078293 0.164737 -0.054828
v 0.202006 -0.158145 -0.033370
v 0.202006 -0.158145 -0.033370
v 0.202006 -0.158145 -0.033370
v 0.090841 0.164737 -0.032331
v 0.090841 0.164737 -0.032331
v 0.090841 0.164737 -0.032331
v 0.097140 0.164737 -0.007353
v 0.097140 0.164737 -0.007353
v 0.097140 0.164737 -0.007353
v 0.185400 -0.158145 -0.084602
v 0.185400 -0.158145 -0.084602
v 0.185400 -0.158145 -0.084602
vn -0.8808 0.3154 0.3532
vn -0.9330 0.3167 0.1708
vn -0.8558 0.3168 0.4090
vn 0.8558 -0.3168 -0.4090
vn 0.9330 -0.3167 -0.1708
vn 0.8808 -0.3154 -0.3532
vn -0.9431 0.3149 0.1067
vn 0.9431 -0.3149 -0.1067
vn -0.7226 0.3167 0.6144
vn 0.7226 -0.3167 -0.6144
vn -0.9394 0.3154 -0.1345
vn 0.9394 -0.3154 0.1345
vn -0.7634 0.3149 0.5640
vn 0.7634 -0.3149 -0.5640
vn -0.9456 0.3168 -0.0736
vn 0.9456 -0.3168 0.0736
vn -0.5862 0.3154 0.7463
vn 0.5862 -0.3154 -0.7463
vn -0.8934 0.3167 -0.3186
vn 0.8934 -0.3167 0.3186
vn -0.5366 0.3168 0.7821
vn 0.5366 -0.3168 -0.7821
vn -0.8701 0.3149 -0.3791
vn 0.8701 -0.3149 0.3791
vn -0.3186 0.3167 0.8934
vn 0.3186 -0.3167 -0.8934
vn -0.7463 0.3154 -0.5862
vn 0.7463 -0.3154 0.5862
vn -0.3791 0.3149 0.8701
vn 0.3791 -0.3149 -0.8701
vn -0.7821 0.3168 -0.5366
vn 0.7821 -0.3168 0.5366
vn -0.1345 0.3154 0.9394
vn 0.1345 -0.3154 -0.9394
vn -0.6144 0.3167 -0.7226
vn 0.6144 -0.3167 0.7226
vn -0.0736 0.3168 0.9456
vn 0.0736 -0.3168 -0.9456
vn -0.5640 0.3149 -0.7634
vn 0.5640 -0.3149 0.7634
vn 0.1708 0.3167 0.9330
vn -0.1708 -0.3167 -0.9330
vn -0.3532 0.3154 -0.8808
vn 0.3532 -0.3154 0.8808
vn 0.1067 0.3149 0.9431
vn -0.1067 -0.3149 -0.9431
vn -0.4091 0.3168 -0.8557
vn 0.4091 -0.3168 0.8557
vn 0.3532 0.3154 0.8808
vn -0.3532 -0.3154 -0.8808
vn -0.1708 0.3167 -0.9330
vn 0.1708 -0.3167 0.9330
vn 0.4091 0.3168 0.8557
vn -0.4091 -0.3168 -0.8557
vn -0.1067 0.3149 -0.9431
vn 0.1067 -0.3149 0.9431
vn 0.6144 0.3167 0.7226
vn -0.6144 -0.3167 -0.7226
vn 0.1345 0.3154 -0.9394
vn -0.1345 -0.3154 0.9394
vn 0.5640 0.3149 0.7634
vn -0.5640 -0.3149 -0.7634
vn 0.0736 0.3168 -0.9456
vn -0.0736 -0.3168 0.9456
vn 0.7463 0.3154 0.5862
vn -0.7463 -0.3154 -0.5862
vn 0.1982 0.3121 -0.9292
vn 0.3187 0.3167 -0.8934
vn -0.3187 -0.3167 0.8934
vn -0.1982 -0.3121 0.9292
vn 0.7821 0.3168 0.5366
vn -0.7821 -0.3168 -0.5366
vn 0.3791 0.3149 -0.8701
vn -0.3791 -0.3149 0.8701
vn 0.8934 0.3167 0.3186
vn -0.8934 -0.3167 -0.3186
vn 0.5862 0.3154 -0.7463
vn -0.5862 -0.3154 0.7463
vn 0.8701 0.3149 0.3792
vn -0.8701 -0.3149 -0.3792
vn 0.5366 0.3168 -0.7821
vn -0.5366 -0.3168 0.7821
vn 0.9394 0.3154 0.1345
vn -0.9394 -0.3154 -0.1345
vn 0.7226 0.3167 -0.6144
vn -0.7226 -0.3167 0.6144
vn 0.9456 0.3168 0.0736
vn -0.9456 -0.3168 -0.0736
vn 0.7634 0.3149 -0.5639
vn -0.7634 -0.3149 0.5639
vn 0.9330 0.3167 -0.1708
vn -0.9330 -0.3167 0.1708
vn 0.8808 0.3154 -0.3532
vn -0.8808 -0.3154 0.3532
vn 0.9431 0.3149 -0.1067
vn -0.9431 -0.3149 0.1067
vn 0.8557 0.3168 -0.4091
vn -0.8557 -0.3168 0.4091
s 1
usemtl Color_K11
f 79//8 80//9 81//10
f 82//11 83//12 84//13
f 88//14 80//9 79//8
f 84//13 83//12 89//15
f 79//8 81//10 91//16
f 92//17 82//11 84//13
f 94//18 80//9 88//14
f 89//15 83//12 95//19
f 79//8 91//16 97//20
f 98//21 92//17 84//13
f 100//22 80//9 94//18
f 95//19 83//12 101//23
f 97//20 91//16 103//24
f 104//25 92//17 98//21
f 106//26 100//22 94//18
f 95//19 101//23 107//27
f 103//24 91//16 109//28
f 110//29 92//17 104//25
f 106//26 94//18 112//30
f 113//31 95//19 107//27
f 103//24 109//28 115//32
f 116//33 110//29 104//25
f 106//26 112//30 118//34
f 119//35 113//31 107//27
f 103//24 115//32 121//36
f 122//37 116//33 104//25
f 124//38 106//26 118//34
f 119//35 107//27 125//39
f 121//36 115//32 127//40
f 128//41 116//33 122//37
f 130//42 124//38 118//34
f 119//35 125//39 131//43
f 127//40 115//32 133//44
f 134//45 116//33 128//41
f 136//46 130//42 118//34
f 119//35 131//43 137//47
f 127//40 133//44 139//48
f 140//49 134//45 128//41
f 142//50 130//42 136//46
f 137//47 131//43 143//51
f 127//40 139//48 145//52
f 146//53 140//49 128//41
f 142//50 148//54 130//42
f 131//43 149//55 143//51
f 145//52 139//48 151//56
f 152//57 140//49 146//53
f 142//50 154//58 148//54
f 149//55 155//59 143//51
f 151//56 139//48 157//60
f 158//61 140//49 152//57
f 160//62 154//58 142//50
f 143//51 155//59 161//63
f 151//56 157//60 163//64
f 164//65 158//61 152//57
f 166//66 154//58 160//62
f 161//63 155//59 167//67
f 151//56 163//64 169//68
f 170//69 164//65 152//57
f 166//66 172//70 154//58
f 155//59 173//71 167//67
f 169//68 163//64 175//72
f 176//73 164//65 170//69
f 166//66 178//74 172//70
f 178//74 166//66 179//75
f 180//76 167//67 181//77
f 173//71 181//77 167//67
f 175//72 163//64 184//78
f 185//79 164//65 176//73
f 187//80 179//75 166//66
f 167//67 180//76 188//81
f 175//72 184//78 190//82
f 191//83 185//79 176//73
f 193//84 179//75 187//80
f 188//81 180//76 194//85
f 196//86 175//72 190//82
f 191//83 176//73 197//87
f 193//84 199//88 179//75
f 180//76 200//89 194//85
f 202//90 196//86 190//82
f 191//83 197//87 203//91
f 193//84 205//92 199//88
f 200//89 206//93 194//85
f 202//90 190//82 208//94
f 209//95 191//83 203//91
f 205//92 193//84 211//96
f 212//97 194//85 206//93
f 214//98 202//90 208//94
f 209//95 203//91 215//99
f 205//92 211//96 217//100
f 218//101 212//97 206//93
f 214//98 220//102 202//90
f 203//91 221//103 215//99
f 205//92 217//100 223//104
f 224//105 218//101 206//93
f 214//98 217//100 220//102
f 221//103 218//101 215//99
f 223//104 217//100 214//98
f 215//99 218//101 224//105
l 85 86
l 85 87
l 86 87
l 90 86
l 90 85
l 93 86
l 87 93
l 96 85
l 96 90
l 93 99
l 86 99
l 102 96
l 102 85
l 93 105
l 99 105
l 108 96
l 108 102
l 93 111
l 105 111
l 114 96
l 114 108
l 117 105
l 111 117
l 120 108
l 120 114
l 117 123
l 105 123
l 126 120
l 126 108
l 129 117
l 123 129
l 120 132
l 132 126
l 117 135
l 129 135
l 138 120
l 132 138
l 141 129
l 135 141
l 132 144
l 144 138
l 141 147
l 129 147
l 144 150
l 150 132
l 153 141
l 147 153
l 144 156
l 156 150
l 141 159
l 153 159
l 162 144
l 156 162
l 165 153
l 159 165
l 168 156
l 168 162
l 165 171
l 153 171
l 168 174
l 174 156
l 177 165
l 171 177
l 182 168
l 182 183
l 183 174
l 165 186
l 186 177
l 189 168
l 189 182
l 192 177
l 186 192
l 195 182
l 195 189
l 198 192
l 177 198
l 201 195
l 201 182
l 204 192
l 198 204
l 207 195
l 207 201
l 192 210
l 210 204
l 213 195
l 213 207
l 204 216
l 210 216
l 219 207
l 219 213
l 222 216
l 204 222
l 225 219
l 225 207
l 219 216
l 222 219
l 216 225
o SketchUp.064
v 6.868109 0.344091 -1.167185
v 6.067699 0.343870 -1.167185
v 6.876577 0.343783 -1.167185
v 6.867979 0.344091 -1.167185
v 6.867415 0.344091 -1.167185
v 6.855271 0.344546 -1.167185
v 6.867415 0.344091 -1.167185
v 6.067699 0.343870 -1.167185
v 6.855271 0.344546 -1.167185
v 6.867979 0.344091 -1.167185
v 6.868109 0.344091 -1.167185
v 6.876577 0.343783 -1.167185
v 6.067699 0.343870 -1.167185
v 6.855271 0.344546 -1.167185
v 6.876577 0.343783 -1.167185
v 6.868109 0.344091 -1.167185
v 6.867979 0.344091 -1.167185
v 6.867415 0.344091 -1.167185
vn -0.0000 -0.0000 1.0000
vn -0.0001 -0.0000 1.0000
vn 0.0001 -0.0000 1.0000
vn -0.0000 -0.0001 1.0000
vn -0.0000 0.0001 -1.0000
vn -0.0000 -0.0000 -1.0000
vn 0.0001 -0.0000 -1.0000
s 0
usemtl material
f 226//106 227//106 228//106
f 227//107 226//108 229//106
f 227//107 229//106 230//106
f 231//109 227//109 230//109
usemtl material_0
f 232//110 233//110 234//110
f 232//111 235//112 233//111
f 235//111 236//112 233//111
f 237//111 233//111 236//111
l 238 239
l 238 240
l 241 240
l 241 242
l 243 242
l 239 243
o SketchUp.143
v 5.523385 0.809742 -5.184239
v 5.248587 0.809742 -5.184239
v 5.523385 0.809742 -5.407558
o SketchUp.144
v 5.314675 0.828254 -3.757869
v 5.312778 0.828254 -3.757699
o SketchUp.145
v 6.947141 0.654073 -4.607586
v 6.947141 0.654073 -5.151165
o SketchUp.146
v 4.961364 0.955146 -5.350565
v 4.961364 0.872935 -5.350565
o SketchUp.147
v 5.050691 0.955146 -5.350565
v 5.050691 0.872935 -5.350565
o SketchUp.148
v 4.560580 0.955146 -5.350565
v 4.560580 0.872935 -5.350565
o SketchUp.149
v 4.560580 0.955146 -4.771131
v 4.560580 0.872935 -4.771131
o SketchUp.150
v 4.961364 0.955146 -4.771131
v 4.961364 0.872935 -4.771131
o SketchUp.151
v 4.471253 0.955146 -4.771131
v 4.471253 0.872935 -4.771131
o SketchUp.152
v 5.050691 0.955146 -5.261239
v 5.050691 0.872935 -5.261239
o SketchUp.153
v 4.961364 0.955146 -5.261239
v 4.961364 0.872935 -5.261239
o SketchUp.154
v 4.560580 0.955146 -5.261239
v 4.560580 0.872935 -5.261239
o SketchUp.155
v 4.471253 0.955146 -5.261239
v 4.471253 0.872935 -5.261239
o SketchUp.156
v 4.857356 1.000308 -4.822020
v 4.859728 1.005262 -4.830869
o SketchUp.157
v 4.902837 1.037199 -4.853213
v 4.904298 1.027423 -4.858667
o SketchUp.158
v 8.700719 0.280988 -4.066913
v 8.700528 0.280988 -4.066913
o SketchUp.159
v 8.307786 1.756983 -5.158377
v 8.307786 1.693576 -5.158377
o SketchUp.160
v 4.546937 1.383905 -5.290248
v 4.546937 1.347384 -5.290248
o SketchUp.161
v 4.546937 1.383905 -5.268336
v 4.546937 1.360664 -5.268336
o SketchUp.162
v 6.815241 2.273363 -5.450233
v 6.535585 2.394590 -5.450233
o SketchUp.163
v 6.254636 2.273363 -5.450233
v 6.515380 2.394590 -5.450233
o SketchUp.164
v 6.177028 0.867707 -1.686171
v 6.177028 0.869803 -1.686171
o SketchUp.165
v 6.858066 0.408793 -1.686171
v 6.855271 0.408793 -1.686171
o SketchUp.166
v 6.875274 0.344563 -1.686171
v 6.875274 0.343785 -1.686171
v 6.875274 0.344625 -1.686171
o SketchUp.167
v 6.855271 0.344546 -1.167185
v 6.855271 0.344625 -1.167185
o SketchUp.168
v 6.060534 0.344005 -1.167185
v 6.064784 0.344005 -1.167185
o SketchUp.169
v 6.132983 0.344637 -1.665849
v 6.137831 0.344594 -1.665849
o SketchUp.170
v 6.520586 1.018890 -1.439373
v 6.520586 0.995106 -1.439373
v 6.568536 1.084206 -1.439373
v 6.613581 1.051138 -1.439373
v 6.637855 1.084206 -1.439373
v 6.607386 1.127677 -1.439373
v 6.651429 1.158547 -1.439373
v 6.651429 1.187884 -1.439373
v 6.686242 1.202402 -1.439373
v 6.713110 1.229802 -1.439373
o SketchUp.171
v 6.421696 1.018890 -1.439373
v 6.421696 0.995106 -1.439373
v 6.373746 1.084206 -1.439373
v 6.328702 1.051138 -1.439373
v 6.304427 1.084206 -1.439373
v 6.334897 1.127677 -1.439373
v 6.290853 1.158547 -1.439373
v 6.290853 1.187884 -1.439373
v 6.256040 1.202402 -1.439373
v 6.229172 1.229802 -1.439373
o SketchUp.172
v 2.975749 0.233707 -3.268111
v 2.975749 0.233707 -3.267631
o SketchUp.173
v 2.256262 0.195480 -3.267631
v 2.256262 0.233707 -3.267631
o SketchUp.174
v 2.256262 0.233707 -1.806336
v 2.256262 0.233707 -1.806815
o SketchUp.175
v 2.244845 0.233707 -3.933840
v 2.244845 0.233707 -3.934318
o SketchUp.176
v 2.244845 0.322448 -3.933840
v 2.244845 0.322448 -3.934318
o SketchUp.177
v 2.244845 0.686970 -3.933840
v 2.244845 0.686970 -3.934318
