# Blender 3.5.1
# www.blender.org
mtllib tierra.mtl
o Mesh2_Groundcover_Gravel_1inch_0
v 0.272914 0.358050 0.109173
v 0.280535 0.358050 0.051285
v 0.272914 0.358050 -0.006603
v 0.250570 0.358050 -0.060546
v 0.215026 0.358050 -0.106868
v 0.168704 0.358050 -0.142413
v 0.114761 0.358050 -0.164757
v 0.056873 0.358050 -0.172378
v -0.001015 0.358050 -0.164757
v -0.054958 0.358050 -0.142413
v -0.101280 0.358050 -0.106868
v -0.136824 0.358050 -0.060546
v -0.159168 0.358050 -0.006603
v -0.166790 0.358050 0.051285
v -0.159168 0.358050 0.109173
v -0.136824 0.358050 0.163116
v -0.101280 0.358050 0.209438
v -0.054958 0.358050 0.244982
v -0.001015 0.358050 0.267326
v 0.056873 0.358050 0.274947
v 0.114761 0.358050 0.267326
v 0.168704 0.358050 0.244982
v 0.215026 0.358050 0.209438
v 0.250570 0.358050 0.163116
vn -0.0000 1.0000 -0.0000
vt 0.472531 1.126614
vt 0.489201 1.000000
vt 0.472531 0.873386
vt 0.423660 0.755400
vt 0.345917 0.654083
vt 0.244600 0.576340
vt 0.126614 0.527469
vt 0.000000 0.510799
vt -0.126614 0.527469
vt -0.244600 0.576340
vt -0.345917 0.654083
vt -0.423660 0.755400
vt -0.472531 0.873386
vt -0.489201 1.000000
vt -0.472531 1.126614
vt -0.423660 1.244600
vt -0.345917 1.345917
vt -0.244600 1.423660
vt -0.126614 1.472532
vt 0.000000 1.489201
vt 0.126614 1.472532
vt 0.244600 1.423660
vt 0.345917 1.345917
vt 0.423660 1.244600
s 0
usemtl Groundcover_Gravel_1inch
f 9/9/1 7/7/1 8/8/1
f 7/7/1 9/9/1 10/10/1
f 7/7/1 10/10/1 6/6/1
f 6/6/1 10/10/1 11/11/1
f 6/6/1 11/11/1 5/5/1
f 5/5/1 11/11/1 12/12/1
f 5/5/1 12/12/1 4/4/1
f 4/4/1 12/12/1 13/13/1
f 4/4/1 13/13/1 3/3/1
f 3/3/1 13/13/1 14/14/1
f 3/3/1 14/14/1 2/2/1
f 2/2/1 14/14/1 15/15/1
f 2/2/1 15/15/1 1/1/1
f 1/1/1 15/15/1 16/16/1
f 1/1/1 16/16/1 24/24/1
f 24/24/1 16/16/1 17/17/1
f 24/24/1 17/17/1 23/23/1
f 23/23/1 17/17/1 18/18/1
f 23/23/1 18/18/1 22/22/1
f 22/22/1 18/18/1 19/19/1
f 22/22/1 19/19/1 21/21/1
f 21/21/1 19/19/1 20/20/1
