# Blender 3.5.1
# www.blender.org
mtllib mesita.mtl
o Cube.001
v -0.903375 2.475972 -0.710971
v -0.903375 1.820631 -0.710972
v -0.927481 1.820631 -0.710972
v -0.927481 2.475973 -0.710971
v -0.902381 2.475972 0.956395
v -0.902381 1.820183 0.956395
v -0.926389 1.820597 0.980501
v -0.926389 2.475973 0.980501
v 1.018106 1.820631 0.955132
v -0.902381 1.769772 0.956395
v -0.926389 1.769773 0.980501
v 1.018106 2.475972 0.955132
v 1.007016 1.769772 0.956395
v 1.051221 1.769773 0.980501
v 1.051221 2.475972 0.980501
v 1.042212 2.475972 -0.697628
v 1.042212 1.820631 -0.697629
v 1.018106 1.820631 -0.697629
v 1.018106 2.475973 -0.697628
v 1.051221 1.818834 0.980501
vn -0.0000 -0.0000 -1.0000
vn 0.7085 -0.0000 0.7057
vn 1.0000 -0.0000 -0.0006
vn -0.0000 -1.0000 -0.0003
vn -1.0000 -0.0000 0.0006
vn -0.0000 1.0000 -0.0000
vn -0.7085 -0.0000 -0.7057
vn 0.5962 -0.1496 -0.7888
vn -0.0000 -0.0018 -1.0000
vn -0.0000 -1.0000 -0.0000
vn -0.0000 -0.0000 1.0000
vn 1.0000 -0.0000 -0.0054
vn -1.0000 -0.0000 -0.0000
vn -0.0000 1.0000 0.0003
vn 0.0069 -0.0000 -1.0000
vn -0.0172 -0.9999 -0.0000
vn 0.6081 -0.0000 -0.7938
vn 0.4788 -0.0000 -0.8779
vn -0.0007 -0.0000 -1.0000
vn -0.1132 -0.0000 -0.9936
vn -0.0536 -0.9986 -0.0008
vn -0.0002 1.0000 -0.0000
s 0
usemtl Material
f 1//1 3//1 4//1
f 5//2 7//2 6//2
f 5//3 2//3 1//3
f 6//4 3//4 2//4
f 3//5 8//5 4//5
f 5//6 4//6 8//6
f 6//7 11//7 7//7
f 20//8 13//8 9//8
f 12//9 13//9 6//9
f 13//10 11//10 10//10
f 14//11 15//11 7//11
f 12//6 8//6 15//6
f 16//1 18//1 19//1
f 15//12 17//12 16//12
f 17//10 9//10 18//10
f 9//13 19//13 18//13
f 16//6 12//6 15//6
f 6//14 18//14 2//14
f 1//15 18//15 2//15
f 1//1 2//1 3//1
f 5//2 8//2 7//2
f 5//3 6//3 2//3
f 6//16 7//16 3//16
f 3//5 7//5 8//5
f 5//6 1//6 4//6
f 8//7 5//7 6//7
f 6//7 10//7 11//7
f 7//7 8//7 6//7
f 9//17 12//17 15//17
f 20//18 14//18 13//18
f 9//17 15//17 20//17
f 6//19 5//19 12//19
f 12//20 9//20 13//20
f 13//1 10//1 6//1
f 13//10 14//10 11//10
f 7//11 11//11 14//11
f 14//11 20//11 15//11
f 15//11 8//11 7//11
f 12//6 5//6 8//6
f 16//1 17//1 18//1
f 15//12 20//12 17//12
f 17//21 20//21 9//21
f 9//13 12//13 19//13
f 16//6 19//6 12//6
f 6//22 9//22 18//22
f 1//15 19//15 18//15
o Cube
v -0.134330 2.082482 1.064256
v -0.134330 2.170379 1.064256
v -0.134330 2.082482 1.032800
v -0.134330 2.170379 1.032800
v 0.273704 2.082482 1.064256
v 0.273704 2.170379 1.064256
v 0.273704 2.082482 1.032800
v 0.273704 2.170379 1.032800
v 0.244271 2.094576 1.032731
v 0.244271 2.156790 1.032563
v 0.260547 2.092485 1.065469
v 0.260547 2.159401 1.065919
v -0.121865 2.094576 1.032731
v -0.121865 2.159401 1.065919
v -0.121865 2.156790 1.032563
v -0.121865 2.092485 1.065469
v -0.134330 2.064711 1.048515
v -0.134330 2.188595 1.048515
v 0.273704 2.064711 1.048515
v 0.273704 2.188595 1.048515
v 0.260547 2.170379 1.048515
v 0.260547 2.082482 1.048515
v -0.121865 2.082482 1.048515
v -0.121865 2.170379 1.048515
v 0.284246 2.126653 1.048515
v 0.276971 2.126431 1.032800
v 0.276971 2.126431 1.064256
v -0.147139 2.126653 1.048515
v -0.139062 2.126431 1.032800
v -0.139062 2.126431 1.064256
v 0.233342 2.094576 1.032731
v 0.233054 2.156790 1.032563
v 0.229861 2.114061 0.980611
v 0.230022 2.140586 0.980611
v 0.242366 2.114061 0.980611
v 0.242366 2.140586 0.980611
v -0.109789 2.094576 1.032731
v -0.110068 2.156790 1.032563
v -0.124478 2.114061 0.980611
v -0.124317 2.140586 0.980611
v -0.111973 2.114061 0.980611
v -0.111973 2.140586 0.980611
vn -0.8848 0.0953 -0.4562
vn 0.0068 -0.0005 -1.0000
vn 0.9053 0.0673 0.4194
vn -0.0799 -0.0086 0.9968
vn -0.5195 -0.7359 0.4342
vn 0.5587 0.7015 0.4424
vn -0.6711 0.4847 0.5609
vn -0.0000 -0.8613 0.5081
vn 0.0874 -0.0067 0.9961
vn -0.0000 -0.0027 -1.0000
vn -0.0090 -0.0027 -1.0000
vn 0.6870 -0.4819 0.5440
vn -0.0000 0.8458 0.5335
vn -0.0000 -0.0067 1.0000
vn -0.0000 0.7612 -0.6485
vn 0.6866 -0.4816 -0.5446
vn -0.0000 -0.7938 -0.6082
vn -0.6708 0.4845 -0.5616
vn 0.6329 0.5894 -0.5021
vn -0.3616 -0.8818 -0.3028
vn 0.9791 -0.0000 0.2035
vn -0.9577 -0.0000 -0.2878
vn -0.9979 -0.0044 0.0650
vn -0.0000 -0.0000 -1.0000
vn 0.9993 -0.0001 -0.0366
vn -0.0000 -0.9367 -0.3502
vn -0.0000 0.9546 -0.2978
vn -0.9987 0.0001 0.0501
vn 0.9992 0.0044 -0.0402
vn -0.0000 0.0027 1.0000
vn -0.9546 -0.1974 -0.2232
vn -0.9534 0.1972 -0.2285
vn -0.8859 -0.0954 -0.4540
vn 0.0012 -0.0027 -1.0000
vn 0.0078 0.0006 -1.0000
vn 0.9686 -0.1648 0.1861
vn 0.9678 0.1647 0.1906
vn 0.9060 -0.0673 0.4178
vn -0.0915 -0.0067 0.9958
vn -0.1209 0.0130 0.9926
vn -0.6672 -0.4939 0.5576
vn 0.6908 0.4727 0.5471
vn -0.5380 0.7129 0.4497
vn 0.0869 -0.0065 0.9962
vn 0.1182 0.0088 0.9930
vn -0.0050 -0.0005 -1.0000
vn -0.0170 0.0018 -0.9999
vn 0.5401 -0.7249 0.4277
vn 0.6085 -0.6299 -0.4827
vn -0.3936 0.8582 -0.3295
vn 0.6905 0.4725 -0.5477
vn -0.6668 -0.4937 -0.5583
vn 0.9938 -0.0739 -0.0835
vn 0.9936 0.0739 -0.0856
vn -0.9871 -0.1063 0.1200
vn -0.9867 0.1062 0.1229
vn -0.0000 -0.0000 1.0000
vn -0.9984 0.0061 0.0564
vn 0.9993 -0.0000 -0.0367
vn -0.9990 0.0061 0.0453
s 0
usemtl Material.001
f 48//23 24//23 49//23
f 30//24 46//24 27//24
f 45//25 26//25 47//25
f 34//26 50//26 21//26
f 42//27 25//27 31//27
f 44//28 22//28 34//28
f 41//29 26//29 40//29
f 42//30 36//30 43//30
f 47//31 32//31 31//31
f 58//32 52//32 51//32
f 49//33 35//33 33//33
f 43//34 21//34 37//34
f 44//35 32//35 41//35
f 32//36 36//36 31//36
f 58//37 44//37 41//37
f 23//38 43//38 37//38
f 51//39 42//39 43//39
f 28//40 41//40 40//40
f 24//41 44//41 35//41
f 27//42 42//42 29//42
f 46//43 40//43 39//43
f 50//44 38//44 37//44
f 52//45 53//45 51//45
f 54//46 55//46 53//46
f 55//47 30//47 29//47
f 55//48 51//48 53//48
f 56//49 52//49 30//49
f 35//50 59//50 33//50
f 60//46 61//46 59//46
f 61//51 58//51 57//51
f 58//52 33//52 57//52
f 61//48 33//48 59//48
f 62//49 35//49 58//49
f 23//53 37//53 48//53
f 48//54 38//54 24//54
f 49//55 23//55 48//55
f 27//56 29//56 30//56
f 30//57 28//57 46//57
f 25//58 39//58 45//58
f 45//59 40//59 26//59
f 47//60 25//60 45//60
f 21//61 36//61 34//61
f 34//62 22//62 50//62
f 42//63 39//63 25//63
f 44//64 38//64 22//64
f 41//65 32//65 26//65
f 42//30 31//30 36//30
f 31//66 25//66 47//66
f 47//67 26//67 32//67
f 57//32 33//32 35//32
f 57//32 35//32 58//32
f 30//32 29//32 51//32
f 51//32 57//32 58//32
f 52//32 30//32 51//32
f 33//68 23//68 49//68
f 49//69 24//69 35//69
f 43//70 36//70 21//70
f 44//35 34//35 32//35
f 32//36 34//36 36//36
f 41//37 30//37 52//37
f 58//37 35//37 44//37
f 41//37 52//37 58//37
f 23//71 33//71 43//71
f 43//39 33//39 57//39
f 51//39 29//39 42//39
f 43//39 57//39 51//39
f 28//72 30//72 41//72
f 24//73 38//73 44//73
f 27//74 39//74 42//74
f 39//75 27//75 46//75
f 46//76 28//76 40//76
f 40//46 45//46 39//46
f 37//77 21//77 50//77
f 50//78 22//78 38//78
f 38//79 48//79 37//79
f 52//80 54//80 53//80
f 54//46 56//46 55//46
f 55//81 56//81 30//81
f 55//48 29//48 51//48
f 56//49 54//49 52//49
f 35//82 60//82 59//82
f 60//46 62//46 61//46
f 61//81 62//81 58//81
f 58//52 35//52 33//52
f 61//48 57//48 33//48
f 62//49 60//49 35//49
o Cube.000
v -0.941022 1.766785 -0.720269
v -0.941022 1.766785 0.848464
v -0.941022 1.807359 0.848464
v -0.941022 1.807359 -0.720269
v 1.058978 1.766785 -0.720268
v 1.058978 1.766786 0.848465
v 1.058978 1.807359 0.848464
v 1.058978 1.807359 -0.720269
v -0.941022 0.671452 -0.720269
v -0.941022 0.671452 0.987140
v -0.941022 0.741647 0.987140
v -0.941022 0.741647 -0.720269
v 1.058978 0.671452 -0.720268
v 1.058978 0.671453 0.987141
v 1.058978 0.741648 0.987140
v 1.058978 0.741647 -0.720269
v -0.929985 0.666434 0.870475
v -0.929985 0.484688 0.870475
v -0.929985 0.484688 0.940670
v -0.929985 0.666434 0.940669
v 1.055843 0.666433 0.870474
v 1.055842 0.484688 0.870475
v 1.055842 0.484688 0.940670
v 1.055843 0.666434 0.940670
v 1.123890 0.481212 -0.755494
v 1.128024 0.481212 1.000000
v 1.057829 0.481212 1.000000
v 1.057829 0.481212 -0.707410
v 1.123890 2.481212 -0.755493
v 1.128023 2.481212 1.000001
v 1.057829 2.481212 1.000000
v 1.057829 2.481212 -0.707409
v -0.993486 0.481212 -0.755494
v -0.929805 0.481212 -0.707409
v -0.993485 2.481212 -0.755494
v -0.929805 2.481212 -0.707409
v -0.929805 0.481212 1.000000
v -1.000000 0.481212 1.000000
v -0.929806 2.481212 1.000001
v -1.000000 2.481212 1.000000
v -1.132517 2.558936 0.987140
v -1.132517 2.558935 -0.760440
v 1.206181 2.558936 0.987140
v 1.206181 2.558936 -0.760440
vn -1.0000 -0.0000 -0.0000
vn 1.0000 -0.0000 -0.0000
vn -0.0000 -1.0000 -0.0000
vn -0.0000 -0.0000 1.0000
vn -0.0000 1.0000 -0.0000
vn -0.0000 -0.0000 -1.0000
vn 1.0000 -0.0000 -0.0024
vn -0.5885 -0.0000 -0.8085
vn -0.6026 -0.0000 0.7980
vn -1.0000 -0.0000 -0.0037
vn -0.4880 -0.8729 -0.0000
vn 0.7050 -0.7092 -0.0017
vn -0.0000 0.1632 0.9866
vn -0.0000 -0.0635 -0.9980
vn -0.5058 -0.8627 -0.0019
vn 0.6866 -0.7270 -0.0000
s 0
usemtl Material
f 64//83 66//83 63//83
f 67//84 69//84 68//84
f 67//85 64//85 63//85
f 68//86 65//86 64//86
f 65//87 70//87 66//87
f 63//88 70//88 67//88
f 71//83 73//83 74//83
f 75//84 77//84 76//84
f 75//85 72//85 71//85
f 76//86 73//86 72//86
f 77//87 74//87 73//87
f 71//88 78//88 75//88
f 79//83 81//83 82//83
f 83//84 85//84 84//84
f 83//88 80//88 79//88
f 84//85 81//85 80//85
f 85//86 82//86 81//86
f 79//87 86//87 83//87
f 88//85 90//85 87//85
f 94//87 92//87 91//87
f 91//89 88//89 87//89
f 92//86 89//86 88//86
f 93//83 90//83 89//83
f 87//90 94//90 91//90
f 95//85 90//85 96//85
f 97//87 94//87 91//87
f 97//88 87//88 95//88
f 94//86 96//86 90//86
f 95//91 98//91 97//91
f 96//85 100//85 95//85
f 98//87 102//87 101//87
f 98//84 99//84 96//84
f 101//86 100//86 99//86
f 102//92 95//92 100//92
f 97//93 103//93 104//93
f 91//94 105//94 92//94
f 97//85 92//85 102//85
f 102//95 105//95 103//95
f 105//87 104//87 103//87
f 97//96 106//96 91//96
f 64//83 65//83 66//83
f 67//84 70//84 69//84
f 67//85 68//85 64//85
f 68//86 69//86 65//86
f 65//87 69//87 70//87
f 63//88 66//88 70//88
f 71//83 72//83 73//83
f 75//84 78//84 77//84
f 75//85 76//85 72//85
f 76//86 77//86 73//86
f 77//87 78//87 74//87
f 71//88 74//88 78//88
f 79//83 80//83 81//83
f 83//84 86//84 85//84
f 83//88 84//88 80//88
f 84//85 85//85 81//85
f 85//86 86//86 82//86
f 79//87 82//87 86//87
f 88//85 89//85 90//85
f 94//87 93//87 92//87
f 91//89 92//89 88//89
f 92//86 93//86 89//86
f 93//83 94//83 90//83
f 87//90 90//90 94//90
f 95//85 87//85 90//85
f 97//87 98//87 94//87
f 97//88 91//88 87//88
f 94//86 98//86 96//86
f 95//91 96//91 98//91
f 96//85 99//85 100//85
f 98//87 97//87 102//87
f 98//84 101//84 99//84
f 101//86 102//86 100//86
f 102//92 97//92 95//92
f 97//97 102//97 103//97
f 91//98 106//98 105//98
f 97//85 91//85 92//85
f 102//95 92//95 105//95
f 105//87 106//87 104//87
f 97//96 104//96 106//96
