# Wavefront OBJ file
# Exported by Maverick Model 3D 1.3.12
# Sun Aug 22 13:44:23 2021

mtllib duf6pack_geoShape.mtl

# 81 Vertices
v -0.589766 0.0 0.181993
v -0.494887 0.0 0.346327
v -0.593495 0.0 -0.148365
v -0.494887 0.0 0.017658
v -0.597772 0.510052 0.364825
v -0.597772 0.540874 0.364825
v -0.480024 0.0 0.003728
v -0.518515 0.0 -0.32268
v -0.589766 0.558448 0.181993
v -0.30513 0.0 0.346327
v -0.494887 0.558448 0.346327
v -0.593495 0.558448 -0.148365
v -0.305128 0.0 0.017658
v -0.597772 0.510052 -0.364825
v -0.597772 0.540874 -0.364825
v -0.291574 0.0 -0.018496
v -0.494887 0.558448 0.017658
v -0.480024 0.558448 0.003728
v -0.21025 0.0 0.181993
v -0.196372 0.0 0.196018
v -0.330063 0.0 -0.344903
v -0.518515 0.558448 -0.32268
v -0.089607 0.0 0.352889
v -0.30513 0.558448 0.346327
v -0.198704 0.0 -0.11521
v -0.216593 0.0 -0.19281
v -0.113899 0.0 0.02512
v -0.305128 0.558448 0.017658
v -0.155913 0.0 -0.30008
v -0.291574 0.558448 -0.018496
v -0.059998 0.0 0.014283
v -0.21025 0.558448 0.181993
v -0.196372 0.558448 0.196018
v -0.330063 0.558448 -0.344903
v 0.099633 0.0 0.338865
v -0.216593 0.463561 -0.19281
v -0.089607 0.558448 0.352889
v -0.198704 0.558448 -0.11521
v -0.216593 0.558448 -0.19281
v 0.075341 0.0 0.011095
v -0.113899 0.558448 0.02512
v 0.025584 0.0 -0.355457
v 0.121499 0.0 -0.041094
v -0.155913 0.558448 -0.30008
v 0.182105 0.0 0.167967
v -0.059998 0.558448 0.014283
v 0.211455 0.0 0.137062
v 0.264723 0.0 0.319189
v 0.16429 0.0 -0.225964
v 0.099633 0.558448 0.338865
v 0.207101 0.0 -0.190461
v 0.075341 0.558448 0.011095
v 0.284247 0.0 -0.017093
v 0.025584 0.558448 -0.355457
v 0.342546 0.0 -0.000134
v 0.121499 0.558448 -0.041094
v 0.182105 0.558448 0.167967
v 0.449084 0.0 0.36412
v 0.211455 0.558448 0.137062
v 0.264723 0.558448 0.319189
v 0.318669 0.0 -0.343955
v 0.16429 0.558448 -0.225964
v 0.207101 0.558448 -0.190461
v 0.472961 0.0 0.002781
v 0.284247 0.558448 -0.017093
v 0.526907 0.0 0.044797
v 0.580176 0.0 0.226923
v 0.342546 0.558448 -0.000134
v 0.449084 0.558448 0.36412
v 0.507383 0.0 -0.324081
v 0.318669 0.558448 -0.343955
v 0.584529 0.0 -0.150714
v 0.472961 0.558448 0.002781
v 0.597772 0.510052 0.364825
v 0.597772 0.540874 0.364825
v 0.526907 0.558448 0.044797
v 0.580176 0.558448 0.226923
v 0.507383 0.558448 -0.324081
v 0.584529 0.558448 -0.150714
v 0.597772 0.510052 -0.364825
v 0.597772 0.540874 -0.364825

# 402 Texture Coordinates
vt 0.40342 1.003858
vt 0.40342 1.00267
vt 0.40342 0.993758
vt 1.571259 0.0
vt 1.225452 1.027948
vt 1.225452 0.0
vt 1.225452 1.027948
vt 0.951965 1.027948
vt 1.225452 0.0
vt 0.40342 0.993758
vt 0.40342 1.00267
vt 0.40342 0.993163
vt 1.571259 1.027948
vt 1.225452 1.027948
vt 1.571259 0.0
vt 1.892328 0.0
vt 1.571259 1.027948
vt 1.571259 0.0
vt 0.40342 0.993758
vt 0.40342 1.00267
vt 0.40342 0.993163
vt 1.892328 0.0
vt 1.571259 1.027948
vt 1.571259 0.0
vt 1.571259 1.027948
vt 1.225452 1.027948
vt 1.571259 0.0
vt 0.40342 1.013365
vt 0.40342 1.00267
vt 0.40342 1.003858
vt -1.109888 1.027948
vt -1.142672 1.027948
vt -1.109888 0.0
vt 1.225452 0.0
vt 0.951965 1.027948
vt 0.951965 0.0
vt 0.540013 1.034159
vt 0.459987 1.035723
vt 0.459987 1.034159
vt 0.540013 1.034159
vt 0.459987 1.034159
vt 0.459987 1.034159
vt 0.459987 1.034159
vt 0.459987 1.035723
vt 0.459987 1.034159
vt 0.459987 1.035723
vt 0.540013 1.034159
vt 0.459987 1.034159
vt -1.186061 0.0
vt -1.228079 1.027948
vt -1.228079 0.0
vt 1.892328 1.027948
vt 1.571259 1.027948
vt 1.892328 0.0
vt 0.40342 1.003858
vt 0.40342 1.00267
vt 0.40342 0.993758
vt 1.571259 0.0
vt 1.225452 1.027948
vt 1.225452 0.0
vt 1.225452 1.027948
vt 0.951965 1.027948
vt 1.225452 0.0
vt 0.503745 0.993163
vt 0.503745 1.00267
vt 0.503745 0.993758
vt -1.186061 0.0
vt -1.228079 1.027948
vt -1.228079 0.0
vt 1.892328 1.027948
vt 1.571259 1.027948
vt 1.892328 0.0
vt 0.40342 1.012771
vt 0.40342 1.00267
vt 0.40342 1.013365
vt -1.109888 0.0
vt -1.142672 1.027948
vt -1.142672 0.0
vt -1.142672 1.027948
vt -1.186061 1.027948
vt -1.142672 0.0
vt 0.459987 1.034159
vt 0.459987 1.035723
vt 0.459987 1.035723
vt 0.540013 1.035723
vt 0.540013 1.034159
vt 0.459987 1.035723
vt 0.459987 1.035723
vt 0.540013 1.035723
vt 0.459987 1.035723
vt -1.186061 1.027948
vt -1.228079 1.027948
vt -1.186061 0.0
vt -1.142672 0.0
vt -1.186061 1.027948
vt -1.186061 0.0
vt 0.503745 0.993758
vt 0.503745 1.00267
vt 0.503745 1.003858
vt -1.186061 1.027948
vt -1.228079 1.027948
vt -1.186061 0.0
vt -1.142672 0.0
vt -1.186061 1.027948
vt -1.186061 0.0
vt 0.40342 1.013365
vt 0.40342 1.00267
vt 0.40342 1.003858
vt -1.109888 1.027948
vt -1.142672 1.027948
vt -1.109888 0.0
vt 1.225452 0.0
vt 0.951965 1.027948
vt 0.951965 0.0
vt 0.40342 1.013365
vt 0.40342 1.00267
vt 0.40342 1.003858
vt -1.142672 1.027948
vt -1.142672 0.853287
vt -1.109888 0.0
vt 1.225452 0.0
vt 0.951965 1.027948
vt 0.951965 0.0
vt 0.503745 0.993163
vt 0.503745 1.00267
vt 0.503745 0.993758
vt 0.40342 1.003858
vt 0.40342 1.00267
vt 0.40342 0.993758
vt 1.225452 1.027948
vt 0.951965 1.027948
vt 1.225452 0.0
vt 1.571259 0.0
vt 1.225452 1.027948
vt 1.225452 0.0
vt -1.186061 0.0
vt -1.228079 1.027948
vt -1.228079 0.0
vt 1.892328 1.027948
vt 1.571259 1.027948
vt 1.892328 0.0
vt 0.40342 1.012771
vt 0.40342 1.00267
vt 0.40342 1.013365
vt -1.142672 0.853287
vt -1.186061 1.027948
vt -1.142672 0.0
vt -1.109888 0.0
vt -1.142672 0.853287
vt -1.142672 0.0
vt 0.40342 1.012771
vt 0.40342 1.00267
vt 0.40342 1.013365
vt -1.109888 0.0
vt -1.142672 1.027948
vt -1.142672 0.0
vt -1.142672 1.027948
vt -1.186061 1.027948
vt -1.142672 0.0
vt 0.503745 1.003858
vt 0.503745 1.00267
vt 0.503745 1.013365
vt 0.40342 0.993758
vt 0.40342 1.00267
vt 0.40342 0.993163
vt 1.892328 0.0
vt 1.571259 1.027948
vt 1.571259 0.0
vt 1.571259 1.027948
vt 1.225452 1.027948
vt 1.571259 0.0
vt 0.503745 1.013365
vt 0.503745 1.00267
vt 0.503745 1.012771
vt -1.186061 1.027948
vt -1.228079 1.027948
vt -1.186061 0.0
vt -1.142672 0.0
vt -1.186061 1.027948
vt -1.186061 0.0
vt 0.503745 1.013365
vt 0.503745 1.00267
vt 0.503745 1.012771
vt 0.503745 0.993758
vt 0.503745 1.00267
vt 0.503745 1.003858
vt 0.503745 0.993758
vt 0.503745 1.00267
vt 0.503745 1.003858
vt -1.142672 1.027948
vt -1.109888 0.0
vt -1.109888 1.027948
vt 0.40342 0.993758
vt 0.40342 1.00267
vt 0.40342 0.993163
vt 1.571259 1.027948
vt 1.225452 1.027948
vt 1.571259 0.0
vt 1.892328 0.0
vt 1.571259 1.027948
vt 1.571259 0.0
vt 0.503745 0.993163
vt 0.503745 1.00267
vt 0.503745 0.993758
vt 0.503745 1.003858
vt 0.503745 1.00267
vt 0.503745 1.013365
vt -1.186061 1.027948
vt -1.142672 0.853287
vt -1.142672 1.027948
vt -1.142672 0.0
vt -1.186061 1.027948
vt -1.186061 0.0
vt -1.186061 1.027948
vt -1.228079 1.027948
vt -1.186061 0.0
vt 0.503745 1.003858
vt 0.503745 1.00267
vt 0.503745 1.013365
vt 0.40342 1.003858
vt 0.40342 1.00267
vt 0.40342 0.993758
vt 1.571259 0.0
vt 1.225452 1.027948
vt 1.225452 0.0
vt 1.225452 1.027948
vt 0.951965 1.027948
vt 1.225452 0.0
vt 0.40342 1.012771
vt 0.40342 1.00267
vt 0.40342 1.013365
vt -1.142672 1.027948
vt -1.186061 1.027948
vt -1.142672 0.0
vt -1.109888 0.0
vt -1.142672 1.027948
vt -1.142672 0.0
vt -1.186061 0.0
vt -1.228079 1.027948
vt -1.228079 0.0
vt 1.892328 1.027948
vt 1.571259 1.027948
vt 1.892328 0.0
vt 0.503745 1.013365
vt 0.503745 1.00267
vt 0.503745 1.012771
vt 0.40342 1.013365
vt 0.40342 1.00267
vt 0.40342 1.003858
vt -1.109888 1.027948
vt -1.142672 1.027948
vt -1.109888 0.0
vt 1.225452 0.0
vt 0.951965 1.027948
vt 0.951965 0.0
vt 0.40342 1.003858
vt 0.40342 1.00267
vt 0.40342 0.993758
vt 1.225452 1.027948
vt 0.951965 1.027948
vt 1.225452 0.0
vt 1.571259 0.0
vt 1.225452 1.027948
vt 1.225452 0.0
vt 0.40342 1.013365
vt 0.40342 1.00267
vt 0.40342 1.003858
vt -1.109888 1.027948
vt -1.142672 1.027948
vt -1.109888 0.0
vt 1.225452 0.0
vt 0.951965 1.027948
vt 0.951965 0.0
vt -1.142672 0.0
vt -1.186061 1.027948
vt -1.186061 0.0
vt -1.186061 1.027948
vt -1.228079 1.027948
vt -1.186061 0.0
vt 0.503745 1.013365
vt 0.503745 1.00267
vt 0.503745 1.012771
vt 0.40342 1.012771
vt 0.40342 1.00267
vt 0.40342 1.013365
vt -1.142672 1.027948
vt -1.186061 1.027948
vt -1.142672 0.0
vt -1.109888 0.0
vt -1.142672 1.027948
vt -1.142672 0.0
vt 0.503745 0.993163
vt 0.503745 1.00267
vt 0.503745 0.993758
vt 0.40342 1.012771
vt 0.40342 1.00267
vt 0.40342 1.013365
vt -1.109888 0.0
vt -1.142672 1.027948
vt -1.142672 0.0
vt -1.142672 1.027948
vt -1.186061 1.027948
vt -1.142672 0.0
vt 0.503745 1.003858
vt 0.503745 1.00267
vt 0.503745 1.013365
vt 0.40342 0.993758
vt 0.40342 1.00267
vt 0.40342 0.993163
vt 1.571259 1.027948
vt 1.225452 1.027948
vt 1.571259 0.0
vt 1.892328 0.0
vt 1.571259 1.027948
vt 1.571259 0.0
vt 0.503745 0.993758
vt 0.503745 1.00267
vt 0.503745 1.003858
vt 0.503745 0.993163
vt 0.503745 1.00267
vt 0.503745 0.993758
vt -1.186061 0.0
vt -1.228079 1.027948
vt -1.228079 0.0
vt 1.892328 1.027948
vt 1.571259 1.027948
vt 1.892328 0.0
vt 0.503745 0.993758
vt 0.503745 1.00267
vt 0.503745 1.003858
vt 0.503745 1.013365
vt 0.503745 1.00267
vt 0.503745 1.012771
vt 0.40342 1.013365
vt 0.40342 1.00267
vt 0.40342 1.003858
vt -1.109888 1.027948
vt -1.142672 1.027948
vt -1.109888 0.0
vt 1.225452 0.0
vt 0.951965 1.027948
vt 0.951965 0.0
vt 0.503745 1.003858
vt 0.503745 1.00267
vt 0.503745 1.013365
vt -1.142672 0.0
vt -1.186061 1.027948
vt -1.186061 0.0
vt -1.186061 1.027948
vt -1.228079 1.027948
vt -1.186061 0.0
vt -1.186061 0.0
vt -1.228079 1.027948
vt -1.228079 0.0
vt 1.892328 1.027948
vt 1.571259 1.027948
vt 1.892328 0.0
vt 0.503745 1.003858
vt 0.503745 1.00267
vt 0.503745 1.013365
vt 0.40342 0.993758
vt 0.40342 1.00267
vt 0.40342 0.993163
vt 1.892328 0.0
vt 1.571259 1.027948
vt 1.571259 0.0
vt 1.571259 1.027948
vt 1.225452 1.027948
vt 1.571259 0.0
vt 0.40342 1.003858
vt 0.40342 1.00267
vt 0.40342 0.993758
vt 1.225452 1.027948
vt 0.951965 1.027948
vt 1.225452 0.0
vt 1.571259 0.0
vt 1.225452 1.027948
vt 1.225452 0.0
vt 0.503745 0.993758
vt 0.503745 1.00267
vt 0.503745 1.003858
vt 0.540013 1.035723
vt 0.459987 1.035723
vt 0.540013 1.034159
vt 0.540013 1.034159
vt 0.459987 1.034159
vt 0.540013 1.034159
vt 0.540013 1.035723
vt 0.540013 1.034159
vt 0.540013 1.034159
vt 0.503745 1.013365
vt 0.503745 1.00267
vt 0.503745 1.012771
vt 0.503745 0.993163
vt 0.503745 1.00267
vt 0.503745 0.993758
vt 0.540013 1.035723
vt 0.540013 1.034159
vt 0.540013 1.035723
vt 0.459987 1.035723
vt 0.540013 1.035723
vt 0.540013 1.035723

# 402 Vertex Normals
vn 0.0 -1.0 0.0
vn 0.0 -1.0 0.0
vn 0.0 -1.0 0.0
vn -0.654652 0.0 0.75593
vn -0.98198 0.0 0.188984
vn -0.981981 0.0 -0.188982
vn -0.98198 0.0 0.188984
vn -0.654653 0.0 -0.755929
vn -0.981981 0.0 -0.188982
vn 0.0 -1.0 0.0
vn 0.0 -1.0 0.0
vn 0.0 -1.0 0.0
vn -0.327326 0.0 0.944911
vn -0.98198 0.0 0.188984
vn -0.654652 0.0 0.75593
vn 0.327326 0.0 0.944911
vn -0.327326 0.0 0.944911
vn -0.654652 0.0 0.75593
vn 0.0 -1.0 0.0
vn 0.0 -1.0 0.0
vn 0.0 -1.0 0.0
vn -0.561622 0.0 0.827394
vn -0.953092 0.0 0.302681
vn -0.997355 0.0 -0.072681
vn -0.953092 0.0 0.302681
vn -0.738676 0.0 -0.67406
vn -0.997355 0.0 -0.072681
vn 0.0 -1.0 0.0
vn 0.0 -1.0 0.0
vn 0.0 -1.0 0.0
vn -0.654653 0.0 -0.755929
vn 0.327328 0.0 -0.944911
vn -0.327327 0.0 -0.944911
vn -0.981981 0.0 -0.188982
vn -0.654653 0.0 -0.755929
vn -0.327327 0.0 -0.944911
vn 0.0 1.0 0.0
vn 0.0 1.0 0.0
vn 0.0 1.0 0.0
vn 0.0 0.0 -1.0
vn 0.0 0.0 -1.0
vn 0.0 0.0 -1.0
vn 1.0 0.0 0.0
vn 1.0 0.0 0.0
vn 1.0 0.0 0.0
vn 0.0 -1.0 0.0
vn 0.0 -1.0 0.0
vn 0.0 -1.0 0.0
vn 0.435735 0.0 0.900075
vn -0.214414 0.0 0.976743
vn -0.561622 0.0 0.827394
vn -0.214414 0.0 0.976743
vn -0.953092 0.0 0.302681
vn -0.561622 0.0 0.827394
vn 0.0 -1.0 0.0
vn 0.0 -1.0 0.0
vn 0.0 -1.0 0.0
vn -0.997355 0.0 -0.072681
vn -0.738676 0.0 -0.67406
vn -0.435732 0.0 -0.900076
vn -0.738676 0.0 -0.67406
vn 0.214417 0.0 -0.976742
vn -0.435732 0.0 -0.900076
vn 0.0 1.0 0.0
vn 0.0 1.0 0.0
vn 0.0 1.0 0.0
vn 0.98198 0.0 0.188986
vn 0.654652 0.0 0.75593
vn 0.327326 0.0 0.944911
vn 0.654652 0.0 0.75593
vn -0.327326 0.0 0.944911
vn 0.327326 0.0 0.944911
vn 0.0 -1.0 0.0
vn 0.0 -1.0 0.0
vn 0.0 -1.0 0.0
vn -0.327327 0.0 -0.944911
vn 0.327328 0.0 -0.944911
vn 0.654656 0.0 -0.755927
vn 0.327328 0.0 -0.944911
vn 0.981981 0.0 -0.188978
vn 0.654656 0.0 -0.755927
vn 1.0 0.0 0.0
vn 1.0 0.0 0.0
vn 1.0 0.0 0.0
vn 0.0 -1.0 0.0
vn 0.0 -1.0 0.0
vn 0.0 -1.0 0.0
vn 0.0 0.0 1.0
vn 0.0 0.0 1.0
vn 0.0 0.0 1.0
vn 0.796819 0.0 0.604218
vn -0.214414 0.0 0.976743
vn 0.435735 0.0 0.900075
vn 0.997355 0.0 0.072683
vn 0.796819 0.0 0.604218
vn 0.435735 0.0 0.900075
vn 0.0 1.0 0.0
vn 0.0 1.0 0.0
vn 0.0 1.0 0.0
vn 0.981981 0.0 -0.188978
vn 0.654652 0.0 0.75593
vn 0.98198 0.0 0.188986
vn 0.654656 0.0 -0.755927
vn 0.981981 0.0 -0.188978
vn 0.98198 0.0 0.188986
vn 0.0 -1.0 0.0
vn 0.0 -1.0 0.0
vn 0.0 -1.0 0.0
vn -0.965327 0.0 0.261045
vn -0.708735 0.0 -0.705475
vn -0.993263 0.0 -0.115886
vn -0.596991 0.0 0.802248
vn -0.965327 0.0 0.261045
vn -0.993263 0.0 -0.115886
vn 0.0 -1.0 0.0
vn 0.0 -1.0 0.0
vn 0.0 -1.0 0.0
vn 0.953092 0.0 -0.302682
vn 0.993119 0.0 -0.11711
vn 0.634417 0.0 -0.772991
vn -0.435732 0.0 -0.900076
vn 0.214417 0.0 -0.976742
vn 0.634417 0.0 -0.772991
vn 0.0 1.0 0.0
vn 0.0 1.0 0.0
vn 0.0 1.0 0.0
vn 0.0 -1.0 0.0
vn 0.0 -1.0 0.0
vn 0.0 -1.0 0.0
vn -0.256593 0.0 0.96652
vn -0.965327 0.0 0.261045
vn -0.596991 0.0 0.802248
vn 0.39627 0.0 0.918134
vn -0.256593 0.0 0.96652
vn -0.596991 0.0 0.802248
vn -0.405555 0.0 0.91407
vn -0.884085 0.0 0.467326
vn -0.994386 0.0 0.105814
vn -0.884085 0.0 0.467326
vn -0.846759 0.0 -0.531976
vn -0.994386 0.0 0.105814
vn 0.0 -1.0 0.0
vn 0.0 -1.0 0.0
vn 0.0 -1.0 0.0
vn 0.993119 0.0 -0.11711
vn 0.796819 0.0 0.604218
vn 0.997355 0.0 0.072683
vn 0.634417 0.0 -0.772991
vn 0.993119 0.0 -0.11711
vn 0.997355 0.0 0.072683
vn 0.0 -1.0 0.0
vn 0.0 -1.0 0.0
vn 0.0 -1.0 0.0
vn -0.993263 0.0 -0.115886
vn -0.708735 0.0 -0.705475
vn -0.39627 0.0 -0.918134
vn -0.708735 0.0 -0.705475
vn 0.256594 0.0 -0.966519
vn -0.39627 0.0 -0.918134
vn 0.0 1.0 0.0
vn 0.0 1.0 0.0
vn 0.0 1.0 0.0
vn 0.0 -1.0 0.0
vn 0.0 -1.0 0.0
vn 0.0 -1.0 0.0
vn -0.994386 0.0 0.105814
vn -0.846759 0.0 -0.531976
vn -0.588832 0.0 -0.808255
vn -0.846759 0.0 -0.531976
vn 0.037325 0.0 -0.999303
vn -0.588832 0.0 -0.808255
vn 0.0 1.0 0.0
vn 0.0 1.0 0.0
vn 0.0 1.0 0.0
vn -0.037325 0.0 0.999303
vn -0.884085 0.0 0.467326
vn -0.405555 0.0 0.91407
vn 0.588832 0.0 0.808255
vn -0.037325 0.0 0.999303
vn -0.405555 0.0 0.91407
vn 0.0 1.0 0.0
vn 0.0 1.0 0.0
vn 0.0 1.0 0.0
vn 0.0 1.0 0.0
vn 0.0 1.0 0.0
vn 0.0 1.0 0.0
vn 0.0 1.0 0.0
vn 0.0 1.0 0.0
vn 0.0 1.0 0.0
vn 0.953092 0.0 -0.302682
vn 0.634417 0.0 -0.772991
vn 0.214417 0.0 -0.976742
vn 0.0 -1.0 0.0
vn 0.0 -1.0 0.0
vn 0.0 -1.0 0.0
vn 0.708733 0.0 0.705476
vn -0.256593 0.0 0.96652
vn 0.39627 0.0 0.918134
vn 0.993262 0.0 0.115888
vn 0.708733 0.0 0.705476
vn 0.39627 0.0 0.918134
vn 0.0 1.0 0.0
vn 0.0 1.0 0.0
vn 0.0 1.0 0.0
vn 0.0 1.0 0.0
vn 0.0 1.0 0.0
vn 0.0 1.0 0.0
vn 0.796819 0.0 0.604218
vn 0.993119 0.0 -0.11711
vn 0.953092 0.0 -0.302682
vn -0.39627 0.0 -0.918134
vn 0.256594 0.0 -0.966519
vn 0.596993 0.0 -0.802246
vn 0.256594 0.0 -0.966519
vn 0.965327 0.0 -0.261042
vn 0.596993 0.0 -0.802246
vn 0.0 1.0 0.0
vn 0.0 1.0 0.0
vn 0.0 1.0 0.0
vn 0.0 -1.0 0.0
vn 0.0 -1.0 0.0
vn 0.0 -1.0 0.0
vn -0.588832 0.0 -0.808255
vn 0.037325 0.0 -0.999303
vn 0.405555 0.0 -0.914071
vn 0.037325 0.0 -0.999303
vn 0.884085 0.0 -0.467326
vn 0.405555 0.0 -0.914071
vn 0.0 -1.0 0.0
vn 0.0 -1.0 0.0
vn 0.0 -1.0 0.0
vn 0.846759 0.0 0.531976
vn -0.037325 0.0 0.999303
vn 0.588832 0.0 0.808255
vn 0.994386 0.0 -0.105814
vn 0.846759 0.0 0.531976
vn 0.588832 0.0 0.808255
vn 0.596993 0.0 -0.802246
vn 0.965327 0.0 -0.261042
vn 0.993262 0.0 0.115888
vn 0.965327 0.0 -0.261042
vn 0.708733 0.0 0.705476
vn 0.993262 0.0 0.115888
vn 0.0 1.0 0.0
vn 0.0 1.0 0.0
vn 0.0 1.0 0.0
vn 0.0 -1.0 0.0
vn 0.0 -1.0 0.0
vn 0.0 -1.0 0.0
vn -0.998803 0.0 -0.048907
vn -0.457047 0.0 -0.889442
vn -0.909308 0.0 -0.416123
vn -0.815028 0.0 0.579422
vn -0.998803 0.0 -0.048907
vn -0.909308 0.0 -0.416123
vn 0.0 -1.0 0.0
vn 0.0 -1.0 0.0
vn 0.0 -1.0 0.0
vn -0.541757 0.0 0.840535
vn -0.998803 0.0 -0.048907
vn -0.815028 0.0 0.579422
vn 0.094281 0.0 0.995546
vn -0.541757 0.0 0.840535
vn -0.815028 0.0 0.579422
vn 0.0 -1.0 0.0
vn 0.0 -1.0 0.0
vn 0.0 -1.0 0.0
vn 0.884085 0.0 -0.467326
vn 0.846759 0.0 0.531976
vn 0.994386 0.0 -0.105814
vn 0.405555 0.0 -0.914071
vn 0.884085 0.0 -0.467326
vn 0.994386 0.0 -0.105814
vn -0.730223 0.0 0.683208
vn -0.996373 0.0 0.085098
vn -0.956788 0.0 -0.290788
vn -0.996373 0.0 0.085098
vn -0.571883 0.0 -0.820335
vn -0.956788 0.0 -0.290788
vn 0.0 1.0 0.0
vn 0.0 1.0 0.0
vn 0.0 1.0 0.0
vn 0.0 -1.0 0.0
vn 0.0 -1.0 0.0
vn 0.0 -1.0 0.0
vn -0.42449 0.0 0.905433
vn -0.996373 0.0 0.085098
vn -0.730223 0.0 0.683208
vn 0.226564 0.0 0.973996
vn -0.42449 0.0 0.905433
vn -0.730223 0.0 0.683208
vn 0.0 1.0 0.0
vn 0.0 1.0 0.0
vn 0.0 1.0 0.0
vn 0.0 -1.0 0.0
vn 0.0 -1.0 0.0
vn 0.0 -1.0 0.0
vn -0.909308 0.0 -0.416123
vn -0.457047 0.0 -0.889442
vn -0.094281 0.0 -0.995546
vn -0.457047 0.0 -0.889442
vn 0.541756 0.0 -0.840536
vn -0.094281 0.0 -0.995546
vn 0.0 1.0 0.0
vn 0.0 1.0 0.0
vn 0.0 1.0 0.0
vn 0.0 -1.0 0.0
vn 0.0 -1.0 0.0
vn 0.0 -1.0 0.0
vn 0.457047 0.0 0.889442
vn -0.541757 0.0 0.840535
vn 0.094281 0.0 0.995546
vn 0.909308 0.0 0.416123
vn 0.457047 0.0 0.889442
vn 0.094281 0.0 0.995546
vn 0.0 1.0 0.0
vn 0.0 1.0 0.0
vn 0.0 1.0 0.0
vn 0.0 1.0 0.0
vn 0.0 1.0 0.0
vn 0.0 1.0 0.0
vn -0.956788 0.0 -0.290788
vn -0.571883 0.0 -0.820335
vn -0.226563 0.0 -0.973997
vn -0.571883 0.0 -0.820335
vn 0.424489 0.0 -0.905433
vn -0.226563 0.0 -0.973997
vn 0.0 1.0 0.0
vn 0.0 1.0 0.0
vn 0.0 1.0 0.0
vn 0.0 1.0 0.0
vn 0.0 1.0 0.0
vn 0.0 1.0 0.0
vn 0.0 -1.0 0.0
vn 0.0 -1.0 0.0
vn 0.0 -1.0 0.0
vn 0.571885 0.0 0.820334
vn -0.42449 0.0 0.905433
vn 0.226564 0.0 0.973996
vn 0.956788 0.0 0.290785
vn 0.571885 0.0 0.820334
vn 0.226564 0.0 0.973996
vn 0.0 1.0 0.0
vn 0.0 1.0 0.0
vn 0.0 1.0 0.0
vn -0.094281 0.0 -0.995546
vn 0.541756 0.0 -0.840536
vn 0.815028 0.0 -0.579422
vn 0.541756 0.0 -0.840536
vn 0.998803 0.0 0.048907
vn 0.815028 0.0 -0.579422
vn 0.815028 0.0 -0.579422
vn 0.998803 0.0 0.048907
vn 0.909308 0.0 0.416123
vn 0.998803 0.0 0.048907
vn 0.457047 0.0 0.889442
vn 0.909308 0.0 0.416123
vn 0.0 1.0 0.0
vn 0.0 1.0 0.0
vn 0.0 1.0 0.0
vn 0.0 -1.0 0.0
vn 0.0 -1.0 0.0
vn 0.0 -1.0 0.0
vn -0.226563 0.0 -0.973997
vn 0.424489 0.0 -0.905433
vn 0.730222 0.0 -0.68321
vn 0.424489 0.0 -0.905433
vn 0.996372 0.0 -0.085101
vn 0.730222 0.0 -0.68321
vn 0.0 -1.0 0.0
vn 0.0 -1.0 0.0
vn 0.0 -1.0 0.0
vn 0.996372 0.0 -0.085101
vn 0.571885 0.0 0.820334
vn 0.956788 0.0 0.290785
vn 0.730222 0.0 -0.68321
vn 0.996372 0.0 -0.085101
vn 0.956788 0.0 0.290785
vn 0.0 1.0 0.0
vn 0.0 1.0 0.0
vn 0.0 1.0 0.0
vn 0.0 1.0 0.0
vn 0.0 1.0 0.0
vn 0.0 1.0 0.0
vn 0.0 0.0 -1.0
vn 0.0 0.0 -1.0
vn 0.0 0.0 -1.0
vn -1.0 0.0 0.0
vn -1.0 0.0 0.0
vn -1.0 0.0 0.0
vn 0.0 1.0 0.0
vn 0.0 1.0 0.0
vn 0.0 1.0 0.0
vn 0.0 1.0 0.0
vn 0.0 1.0 0.0
vn 0.0 1.0 0.0
vn -1.0 0.0 0.0
vn -1.0 0.0 0.0
vn -1.0 0.0 0.0
vn 0.0 0.0 1.0
vn 0.0 0.0 1.0
vn 0.0 0.0 1.0

# duf6pack_geoShape, 134 grouped triangles

usemtl duff_beer_can_m
o duf6pack_geoShape
g duf6pack_geoShape

f 4/1/1 10/2/2 1/3/3
f 2/4/4 9/5/5 1/6/6
f 9/7/7 17/8/8 1/9/9
f 1/10/10 10/11/11 2/12/12
f 11/13/13 9/14/14 2/15/15
f 10/16/16 11/17/17 2/18/18
f 8/19/19 7/20/20 3/21/21
f 7/22/22 12/23/23 3/24/24
f 12/25/25 22/26/26 3/27/27
f 13/28/28 10/29/29 4/30/30
f 17/31/31 28/32/32 4/33/33
f 1/34/34 17/35/35 4/36/36
f 74/37/37 14/38/38 5/39/39
f 75/40/40 5/41/41 6/42/42
f 5/43/43 14/44/44 6/45/45
f 15/46/46 75/47/47 6/48/48
f 16/49/49 18/50/50 7/51/51
f 18/52/52 12/53/53 7/54/54
f 21/55/55 7/56/56 8/57/57
f 3/58/58 22/59/59 8/60/60
f 22/61/61 34/62/62 8/63/63
f 11/64/64 24/65/65 9/66/66
f 19/67/67 24/68/68 10/69/69
f 24/70/70 11/71/71 10/72/72
f 19/73/73 10/74/74 13/75/75
f 4/76/76 28/77/77 13/78/78
f 28/79/79 32/80/80 13/81/81
f 6/82/82 14/83/83 15/84/84
f 81/85/85 75/86/86 15/87/87
f 14/88/88 80/89/89 15/90/90
f 30/91/91 18/92/92 16/93/93
f 26/94/94 30/95/95 16/96/96
f 9/97/97 24/98/98 17/99/99
f 32/100/100 24/101/101 19/102/102
f 13/103/103 32/104/104 19/105/105
f 27/106/106 45/107/107 20/108/108
f 33/109/109 41/110/110 20/111/111
f 23/112/112 33/113/113 20/114/114
f 26/115/115 7/116/116 21/117/117
f 39/118/118 36/119/119 21/120/120
f 8/121/121 34/122/122 21/123/123
f 12/124/124 18/125/125 22/126/126
f 20/127/127 45/128/128 23/129/129
f 37/130/130 33/131/131 23/132/132
f 35/133/133 37/134/134 23/135/135
f 31/136/136 38/137/137 25/138/138
f 38/139/139 44/140/140 25/141/141
f 16/142/142 7/143/143 26/144/144
f 36/145/145 30/146/146 26/147/147
f 21/148/148 36/149/149 26/150/150
f 40/151/151 45/152/152 27/153/153
f 20/154/154 41/155/155 27/156/156
f 41/157/157 52/158/158 27/159/159
f 17/160/160 24/161/161 28/162/162
f 42/163/163 25/164/164 29/165/165
f 25/166/166 44/167/167 29/168/168
f 44/169/169 54/170/170 29/171/171
f 39/172/172 18/173/173 30/174/174
f 46/175/175 38/176/176 31/177/177
f 43/178/178 46/179/179 31/180/180
f 28/181/181 24/182/182 32/183/183
f 37/184/184 57/185/185 33/186/186
f 22/187/187 18/188/188 34/189/189
f 39/190/190 21/191/191 34/192/192
f 23/193/193 45/194/194 35/195/195
f 50/196/196 37/197/197 35/198/198
f 45/199/199 50/200/200 35/201/201
f 50/202/202 57/203/203 37/204/204
f 34/205/205 18/206/206 39/207/207
f 30/208/208 36/209/209 39/210/210
f 27/211/211 52/212/212 40/213/213
f 52/214/214 57/215/215 40/216/216
f 33/217/217 57/218/218 41/219/219
f 49/220/220 25/221/221 42/222/222
f 29/223/223 54/224/224 42/225/225
f 54/226/226 62/227/227 42/228/228
f 31/229/229 25/230/230 43/231/231
f 56/232/232 46/233/233 43/234/234
f 49/235/235 56/236/236 43/237/237
f 40/238/238 57/239/239 45/240/240
f 57/241/241 50/242/242 45/243/243
f 56/244/244 38/245/245 46/246/246
f 55/247/247 67/248/248 47/249/249
f 59/250/250 68/251/251 47/252/252
f 48/253/253 59/254/254 47/255/255
f 47/256/256 67/257/257 48/258/258
f 60/259/259 59/260/260 48/261/261
f 58/262/262 60/263/263 48/264/264
f 43/265/265 25/266/266 49/267/267
f 62/268/268 56/269/269 49/270/270
f 42/271/271 62/272/272 49/273/273
f 53/274/274 63/275/275 51/276/276
f 63/277/277 71/278/278 51/279/279
f 41/280/280 57/281/281 52/282/282
f 51/283/283 61/284/284 53/285/285
f 65/286/286 63/287/287 53/288/288
f 64/289/289 65/290/290 53/291/291
f 44/292/292 38/293/293 54/294/294
f 66/295/295 67/296/296 55/297/297
f 47/298/298 68/299/299 55/300/300
f 68/301/301 76/302/302 55/303/303
f 62/304/304 38/305/305 56/306/306
f 48/307/307 67/308/308 58/309/309
f 69/310/310 60/311/311 58/312/312
f 67/313/313 69/314/314 58/315/315
f 60/316/316 77/317/317 59/318/318
f 69/319/319 77/320/320 60/321/321
f 51/322/322 71/323/323 61/324/324
f 71/325/325 78/326/326 61/327/327
f 54/328/328 38/329/329 62/330/330
f 65/331/331 71/332/332 63/333/333
f 53/334/334 61/335/335 64/336/336
f 73/337/337 65/338/338 64/339/339
f 72/340/340 73/341/341 64/342/342
f 73/343/343 71/344/344 65/345/345
f 55/346/346 76/347/347 66/348/348
f 76/349/349 77/350/350 66/351/351
f 66/352/352 77/353/353 67/354/354
f 77/355/355 69/356/356 67/357/357
f 59/358/358 77/359/359 68/360/360
f 72/361/361 61/362/362 70/363/363
f 61/364/364 78/365/365 70/366/366
f 78/367/367 79/368/368 70/369/369
f 64/370/370 61/371/371 72/372/372
f 79/373/373 73/374/374 72/375/375
f 70/376/376 79/377/377 72/378/378
f 79/379/379 71/380/380 73/381/381
f 80/382/382 14/383/383 74/384/384
f 74/385/385 5/386/386 75/387/387
f 81/388/388 74/389/389 75/390/390
f 68/391/391 77/392/392 76/393/393
f 78/394/394 71/395/395 79/396/396
f 80/397/397 74/398/398 81/399/399
f 15/400/400 80/401/401 81/402/402
